<!-- Simple SVG icon for the Fantasy Tome Keeper -->
<svg xmlns="http://www.w3.org/2000/svg" viewBox="0 0 192 192" width="192" height="192">
  <rect width="192" height="192" fill="#0ea5e9" rx="24"/>
  <path d="M48 56h96a8 8 0 0 1 8 8v80a8 8 0 0 1-8 8H48a8 8 0 0 1-8-8V64a8 8 0 0 1 8-8z" fill="#fff"/>
  <path d="M64 80h64v4H64zm0 16h64v4H64zm0 16h48v4H64z" fill="#0ea5e9"/>
  <circle cx="76" cy="120" r="3" fill="#d4af37"/>
  <path d="M156 48c-8 0-12 8-12 8s-4-8-12-8c-8 0-12 8-12 16s12 24 24 32c12-8 24-24 24-32s-4-16-12-16z" fill="#dc143c"/>
</svg>
